<?xml version="1.0" encoding="UTF-8"?>
<svg xmlns="http://www.w3.org/2000/svg" xmlns:xlink="http://www.w3.org/1999/xlink" width="70px" height="70px" viewBox="0 0 70 70" version="1.1">
<g id="surface1">
<path style=" stroke:none;fill-rule:nonzero;fill:rgb(0%,0%,0%);fill-opacity:1;" d="M 35 64.167969 C 30.964844 64.167969 27.171875 63.402344 23.625 61.871094 C 20.078125 60.339844 16.988281 58.261719 14.363281 55.636719 C 11.738281 53.011719 9.660156 49.921875 8.128906 46.375 C 6.597656 42.828125 5.832031 39.035156 5.832031 35 C 5.832031 30.964844 6.597656 27.171875 8.128906 23.625 C 9.660156 20.078125 11.738281 16.988281 14.363281 14.363281 C 16.988281 11.738281 20.078125 9.660156 23.625 8.128906 C 27.171875 6.597656 30.964844 5.832031 35 5.832031 C 39.035156 5.832031 42.828125 6.597656 46.375 8.128906 C 49.921875 9.660156 53.011719 11.738281 55.636719 14.363281 C 58.261719 16.988281 60.339844 20.078125 61.871094 23.625 C 63.402344 27.171875 64.167969 30.964844 64.167969 35 L 64.167969 38.863281 C 64.167969 41.585938 63.207031 43.882812 61.285156 45.753906 C 59.367188 47.625 57.019531 48.5625 54.25 48.5625 C 52.5 48.5625 50.847656 48.136719 49.292969 47.285156 C 47.734375 46.4375 46.546875 45.234375 45.71875 43.675781 C 44.453125 45.328125 42.875 46.558594 40.980469 47.359375 C 39.082031 48.160156 37.089844 48.5625 35 48.5625 C 31.207031 48.5625 27.988281 47.25 25.339844 44.625 C 22.6875 42 21.363281 38.792969 21.363281 35 C 21.363281 31.207031 22.6875 27.976562 25.339844 25.300781 C 27.988281 22.628906 31.207031 21.292969 35 21.292969 C 38.792969 21.292969 42.011719 22.628906 44.660156 25.300781 C 47.3125 27.976562 48.636719 31.207031 48.636719 35 L 48.636719 38.863281 C 48.636719 40.371094 49.183594 41.636719 50.277344 42.65625 C 51.371094 43.675781 52.695312 44.1875 54.25 44.1875 C 55.757812 44.1875 57.058594 43.675781 58.152344 42.65625 C 59.246094 41.636719 59.792969 40.371094 59.792969 38.863281 L 59.792969 35 C 59.792969 28.097656 57.386719 22.238281 52.574219 17.425781 C 47.761719 12.613281 41.902344 10.207031 35 10.207031 C 28.097656 10.207031 22.238281 12.613281 17.425781 17.425781 C 12.613281 22.238281 10.207031 28.097656 10.207031 35 C 10.207031 41.902344 12.613281 47.761719 17.425781 52.574219 C 22.238281 57.386719 28.097656 59.792969 35 59.792969 L 50.605469 59.792969 L 50.605469 64.167969 Z M 35 44.1875 C 37.578125 44.1875 39.765625 43.300781 41.5625 41.527344 C 43.359375 39.75 44.261719 37.578125 44.261719 35 C 44.261719 32.375 43.359375 30.164062 41.5625 28.363281 C 39.765625 26.566406 37.578125 25.667969 35 25.667969 C 32.421875 25.667969 30.234375 26.566406 28.4375 28.363281 C 26.640625 30.164062 25.738281 32.375 25.738281 35 C 25.738281 37.578125 26.640625 39.75 28.4375 41.527344 C 30.234375 43.300781 32.421875 44.1875 35 44.1875 Z M 35 44.1875 "/>
</g>
</svg>
