<?xml version="1.0" encoding="UTF-8"?>
<svg xmlns="http://www.w3.org/2000/svg" xmlns:xlink="http://www.w3.org/1999/xlink" width="70px" height="70px" viewBox="0 0 70 70" version="1.1">
<g id="surface1">
<path style=" stroke:none;fill-rule:nonzero;fill:rgb(0%,0%,0%);fill-opacity:1;" d="M 52.207031 61.25 L 19.832031 61.25 L 19.832031 23.917969 L 40.105469 2.917969 L 42.949219 5.175781 C 43.238281 5.421875 43.457031 5.761719 43.605469 6.199219 C 43.75 6.636719 43.824219 7.171875 43.824219 7.800781 L 43.824219 8.53125 L 40.542969 23.917969 L 62.34375 23.917969 C 63.511719 23.917969 64.53125 24.355469 65.40625 25.230469 C 66.28125 26.105469 66.71875 27.125 66.71875 28.292969 L 66.71875 34.269531 C 66.71875 34.609375 66.753906 34.964844 66.828125 35.328125 C 66.902344 35.691406 66.863281 36.046875 66.71875 36.386719 L 57.53125 57.53125 C 57.09375 58.550781 56.375 59.425781 55.378906 60.15625 C 54.382812 60.886719 53.328125 61.25 52.207031 61.25 Z M 24.207031 56.875 L 53.15625 56.875 L 62.34375 35.074219 L 62.34375 28.292969 L 35.144531 28.292969 L 39.011719 10.136719 L 24.207031 25.738281 Z M 24.207031 25.738281 L 24.207031 56.875 Z M 19.832031 23.917969 L 19.832031 28.292969 L 10.136719 28.292969 L 10.136719 56.875 L 19.832031 56.875 L 19.832031 61.25 L 5.761719 61.25 L 5.761719 23.917969 Z M 19.832031 23.917969 "/>
</g>
</svg>
